<?xml version="1.0" encoding="UTF-8"?>
<svg version="1.1" xmlns="http://www.w3.org/2000/svg" width="32" height="29">
<path d="M0 0 C2.73244993 0.28762631 4.53491296 0.65118472 6.75 2.3125 C8.14744246 4.19904732 8.6037919 5.70199304 9 8 C9.515625 7.649375 10.03125 7.29875 10.5625 6.9375 C13.96469159 5.62896477 16.48525684 6.270525 20 7 C20.33 7.33 20.66 7.66 21 8 C21.268125 7.236875 21.53625 6.47375 21.8125 5.6875 C23.62637363 1.58241758 23.62637363 1.58241758 26 0 C28.6875 0.3125 28.6875 0.3125 31 1 C31.25 8.625 31.25 8.625 29 12 C28.01 12.33 27.02 12.66 26 13 C26.185625 14.134375 26.37125 15.26875 26.5625 16.4375 C26.706875 17.613125 26.85125 18.78875 27 20 C26 21 26 21 23.86694336 21.11352539 C22.95050049 21.10828857 22.03405762 21.10305176 21.08984375 21.09765625 C20.10048828 21.09443359 19.11113281 21.09121094 18.09179688 21.08789062 C17.05087891 21.07951172 16.00996094 21.07113281 14.9375 21.0625 C13.89271484 21.05798828 12.84792969 21.05347656 11.77148438 21.04882812 C9.1809334 21.03699913 6.59049441 21.02051689 4 21 C3.20046862 17.71303767 2.90341064 16.28976808 4 13 C3.360625 12.71125 2.72125 12.4225 2.0625 12.125 C0 11 0 11 -1 9 C-1.18704404 6.30986661 -1.08581391 3.70313823 -1 1 C-0.67 0.67 -0.34 0.34 0 0 Z " fill="#003358" transform="translate(1,8)"/>
<path d="M0 0 C3.625 -0.1875 3.625 -0.1875 7 0 C7.33 1.32 7.66 2.64 8 4 C8.66 4 9.32 4 10 4 C10.33 2.68 10.66 1.36 11 0 C14.375 -0.1875 14.375 -0.1875 18 0 C20 3 20 3 19.8125 6 C18.98389778 9.05945433 18.64244001 10.30128857 16 12 C13.3125 12.1875 13.3125 12.1875 11 12 C10.67 11.01 10.34 10.02 10 9 C9.34 9 8.68 9 8 9 C7.67 9.99 7.34 10.98 7 12 C2.56 12.36 2.56 12.36 0.25 10.875 C-1.49044181 8.26433729 -1.80558481 6.11064304 -2 3 C-1.34 2.01 -0.68 1.02 0 0 Z " fill="#003358" transform="translate(7,0)"/>
</svg>
